<svg width="45" height="45" viewBox="0 0 45 45" fill="none" xmlns="http://www.w3.org/2000/svg">
<path d="M29.2241 19.4831V11.1333C29.2241 9.28783 28.491 7.51798 27.1861 6.21306C25.8812 4.90814 24.1114 4.17505 22.2659 4.17505C20.4205 4.17505 18.6506 4.90814 17.3457 6.21306C16.0408 7.51798 15.3077 9.28783 15.3077 11.1333V19.4831M36.379 15.7851L38.7226 38.0514C38.8525 39.2853 37.8876 40.3578 36.6462 40.3578H7.8856C7.59281 40.3581 7.30324 40.2968 7.03568 40.1779C6.76812 40.059 6.52856 39.8852 6.33257 39.6677C6.13658 39.4501 5.98854 39.1938 5.89806 38.9154C5.80759 38.6369 5.7767 38.3425 5.80741 38.0514L8.1528 15.7851C8.2069 15.2721 8.44899 14.7974 8.83238 14.4524C9.21578 14.1073 9.71334 13.9165 10.2291 13.9166H34.3027C35.3715 13.9166 36.2677 14.7237 36.379 15.7851ZM16.0035 19.4831C16.0035 19.6677 15.9302 19.8447 15.7997 19.9752C15.6692 20.1056 15.4922 20.179 15.3077 20.179C15.1232 20.179 14.9462 20.1056 14.8157 19.9752C14.6852 19.8447 14.6119 19.6677 14.6119 19.4831C14.6119 19.2986 14.6852 19.1216 14.8157 18.9911C14.9462 18.8606 15.1232 18.7873 15.3077 18.7873C15.4922 18.7873 15.6692 18.8606 15.7997 18.9911C15.9302 19.1216 16.0035 19.2986 16.0035 19.4831ZM29.92 19.4831C29.92 19.6677 29.8467 19.8447 29.7162 19.9752C29.5857 20.1056 29.4087 20.179 29.2241 20.179C29.0396 20.179 28.8626 20.1056 28.7321 19.9752C28.6016 19.8447 28.5283 19.6677 28.5283 19.4831C28.5283 19.2986 28.6016 19.1216 28.7321 18.9911C28.8626 18.8606 29.0396 18.7873 29.2241 18.7873C29.4087 18.7873 29.5857 18.8606 29.7162 18.9911C29.8467 19.1216 29.92 19.2986 29.92 19.4831Z" stroke="black" stroke-width="2.78329" stroke-linecap="round" stroke-linejoin="round"/>
</svg>
