<svg width="45" height="45" viewBox="0 0 45 45" fill="none" xmlns="http://www.w3.org/2000/svg">
<path d="M27.8333 19.483C27.8333 20.9593 27.2469 22.3752 26.2029 23.4191C25.159 24.4631 23.7431 25.0495 22.2668 25.0495C20.7904 25.0495 19.3745 24.4631 18.3306 23.4191C17.2867 22.3752 16.7002 20.9593 16.7002 19.483C16.7002 18.0066 17.2867 16.5907 18.3306 15.5468C19.3745 14.5029 20.7904 13.9164 22.2668 13.9164C23.7431 13.9164 25.159 14.5029 26.2029 15.5468C27.2469 16.5907 27.8333 18.0066 27.8333 19.483Z" stroke="black" stroke-width="2.78329" stroke-linecap="round" stroke-linejoin="round"/>
<path d="M36.1832 19.483C36.1832 32.7351 22.2668 40.3576 22.2668 40.3576C22.2668 40.3576 8.35034 32.7351 8.35034 19.483C8.35034 15.7921 9.81653 12.2524 12.4264 9.64256C15.0362 7.03272 18.5759 5.56653 22.2668 5.56653C25.9577 5.56653 29.4974 7.03272 32.1072 9.64256C34.717 12.2524 36.1832 15.7921 36.1832 19.483Z" stroke="black" stroke-width="2.78329" stroke-linecap="round" stroke-linejoin="round"/>
</svg>
