<svg width="17" height="21" viewBox="0 0 17 21" fill="none" xmlns="http://www.w3.org/2000/svg">
<path d="M12.75 9V5.25C12.75 4.05653 12.2759 2.91193 11.432 2.06802C10.5881 1.22411 9.44347 0.75 8.25 0.75C7.05653 0.75 5.91193 1.22411 5.06802 2.06802C4.22411 2.91193 3.75 4.05653 3.75 5.25V9M3 20.25H13.5C14.0967 20.25 14.669 20.0129 15.091 19.591C15.5129 19.169 15.75 18.5967 15.75 18V11.25C15.75 10.6533 15.5129 10.081 15.091 9.65901C14.669 9.23705 14.0967 9 13.5 9H3C2.40326 9 1.83097 9.23705 1.40901 9.65901C0.987053 10.081 0.75 10.6533 0.75 11.25V18C0.75 18.5967 0.987053 19.169 1.40901 19.591C1.83097 20.0129 2.40326 20.25 3 20.25Z" stroke="white" stroke-width="1.5" stroke-linecap="round" stroke-linejoin="round"/>
</svg>
