<svg width="39" height="31" viewBox="0 0 39 31" fill="none" xmlns="http://www.w3.org/2000/svg">
<path d="M12.5248 26.4421C12.5248 27.1803 12.2315 27.8882 11.7096 28.4102C11.1876 28.9321 10.4797 29.2254 9.7415 29.2254C9.00333 29.2254 8.29539 28.9321 7.77342 28.4102C7.25145 27.8882 6.95821 27.1803 6.95821 26.4421M12.5248 26.4421C12.5248 25.7039 12.2315 24.996 11.7096 24.474C11.1876 23.952 10.4797 23.6588 9.7415 23.6588C9.00333 23.6588 8.29539 23.952 7.77342 24.474C7.25145 24.996 6.95821 25.7039 6.95821 26.4421M12.5248 26.4421H23.6579M6.95821 26.4421H3.4791C2.92547 26.4421 2.39452 26.2222 2.00304 25.8307C1.61157 25.4392 1.39164 24.9082 1.39164 24.3546V18.0922M23.6579 26.4421H27.8329M23.6579 26.4421V18.0922M1.39164 18.0922V3.92528C1.38869 3.41718 1.57433 2.92606 1.91265 2.54695C2.25096 2.16785 2.71788 1.92773 3.22304 1.87307C9.40759 1.23111 15.642 1.23111 21.8265 1.87307C22.8749 1.98069 23.6579 2.87134 23.6579 3.92528V5.70288M1.39164 18.0922H23.6579M33.3994 26.4421C33.3994 27.1803 33.1062 27.8882 32.5842 28.4102C32.0623 28.9321 31.3543 29.2254 30.6162 29.2254C29.878 29.2254 29.17 28.9321 28.6481 28.4102C28.1261 27.8882 27.8329 27.1803 27.8329 26.4421M33.3994 26.4421C33.3994 25.7039 33.1062 24.996 32.5842 24.474C32.0623 23.952 31.3543 23.6588 30.6162 23.6588C29.878 23.6588 29.17 23.952 28.6481 24.474C28.1261 24.996 27.8329 25.7039 27.8329 26.4421M33.3994 26.4421H35.4869C36.6392 26.4421 37.5818 25.5069 37.5094 24.3565C37.1366 18.2289 35.073 12.3244 31.5476 7.29863C31.2119 6.82784 30.7734 6.43955 30.2656 6.1631C29.7577 5.88665 29.1936 5.72928 28.6159 5.70288H23.6579M23.6579 5.70288V18.0922" stroke="black" stroke-width="2.78329" stroke-linecap="round" stroke-linejoin="round"/>
</svg>
